# xmcd
#
# Track frame offsets: 
#        150
#        25374
#        46313
#        67500
#        80325
#        100349
#        121389
#        144224
#        160949
#        174102
#        189659
#
# Disc length: 2811 seconds
#
# Revision: 2
# Processed by: cddbd v1.5.2PL0 Copyright (c) Steve Scherf et al.
# Submitted via: ExactAudioCopyFreeDBPlugin 1.0
#
DISCID=810af90b
DTITLE=GetOnUp - GetOnUp
DYEAR=2014
DGENRE=Top 40
TTITLE0=Ride Like The Wind
TTITLE1=Baby Love
TTITLE2=Superstition
TTITLE3=Chain Of Fools
TTITLE4=Easy
TTITLE5=Black Velvet
TTITLE6=The Boys Are Back In Town
TTITLE7=Under Pressure
TTITLE8=Soul Man
TTITLE9=Knock On Wood
TTITLE10=Easy Lover
EXTD=
EXTT0=
EXTT1=
EXTT2=
EXTT3=
EXTT4=
EXTT5=
EXTT6=
EXTT7=
EXTT8=
EXTT9=
EXTT10=
PLAYORDER=
